# Blender 3.5.0
# www.blender.org
mtllib sword.mtl
o sword.col
v -0.160587 0.434467 -0.010076
v -0.142781 1.111165 -0.000851
v -0.160587 0.434467 0.010076
v -0.142781 1.111165 0.000851
v -0.096776 0.434467 -0.010076
v -0.114578 1.111165 -0.000851
v -0.096776 0.434467 0.010076
v -0.114578 1.111165 0.000851
v -0.141100 0.277523 -0.010076
v -0.141100 0.277523 0.010076
v -0.116260 0.277523 -0.010076
v -0.116260 0.277523 0.010076
v -0.116260 0.406547 0.010076
v -0.141100 0.406547 0.010076
v -0.141100 0.406547 -0.010076
v -0.116260 0.406547 -0.010076
v -0.160587 0.434467 0.010076
v -0.160587 0.434467 -0.010076
v -0.096776 0.434467 -0.010076
v -0.096776 0.434467 0.010076
v -0.160587 0.406547 0.010076
v -0.160587 0.406547 -0.010076
v -0.096776 0.406547 0.010076
v -0.096776 0.406547 -0.010076
v -0.238637 0.428598 0.003985
v -0.238637 0.428598 -0.003985
v -0.238637 0.412416 0.003985
v -0.238637 0.412416 -0.003985
v -0.017231 0.429626 -0.003985
v -0.017231 0.429626 0.003985
v -0.017231 0.411388 0.003985
v -0.017231 0.411388 -0.003985
v -0.128681 0.434467 0.010076
v -0.128680 1.130635 0.002171
v -0.128681 0.434467 -0.010076
v -0.128680 1.130635 -0.002171
v -0.128680 0.277523 0.010076
v -0.128680 0.277523 -0.010076
v -0.128680 0.406547 -0.010076
v -0.128680 0.406547 0.010076
v -0.160587 0.456050 -0.010076
v -0.160587 0.456050 0.010076
v -0.096776 0.456050 0.010076
v -0.096776 0.456050 -0.010076
v -0.128681 0.456050 -0.010076
v -0.128681 0.456050 0.010076
v -0.152291 0.506921 -0.005174
v -0.152291 0.506921 0.005174
v -0.105071 0.506921 0.005174
v -0.105071 0.506921 -0.005174
v -0.128681 0.506921 -0.005174
v -0.128681 0.506921 0.005174
v -0.152291 0.461810 0.005174
v -0.105071 0.461810 0.005174
v -0.105071 0.461810 -0.005174
v -0.128681 0.461810 -0.005174
v -0.128681 0.461810 0.005174
v -0.152291 0.461810 -0.005174
vn -0.9999 0.0157 -0.0000
vn 0.0382 0.0063 0.9993
vn 0.9999 0.0157 -0.0000
vn -0.0382 0.0063 -0.9993
vn -0.0000 -0.0000 1.0000
vn -0.8099 0.5866 -0.0000
vn -0.0000 -1.0000 -0.0000
vn -1.0000 -0.0000 -0.0000
vn 1.0000 -0.0000 -0.0000
vn -0.0000 -0.0000 -1.0000
vn 0.0607 0.9982 -0.0000
vn -0.0778 -0.0000 0.9970
vn -0.0000 1.0000 -0.0000
vn -0.0750 0.9972 -0.0000
vn -0.0750 -0.9972 -0.0000
vn -0.0778 -0.0000 -0.9970
vn 0.0607 -0.9982 -0.0000
vn 0.0764 -0.0000 0.9971
vn 0.0764 -0.0000 -0.9971
vn 0.8099 0.5866 -0.0000
vn 0.0382 0.0063 -0.9993
vn -0.0382 0.0063 0.9993
vn -0.5703 0.8214 -0.0000
vn -0.0000 0.6482 0.7615
vn 0.5703 0.8214 -0.0000
vn -0.0000 0.6482 -0.7615
vt 0.375000 0.000000
vt 0.622282 0.495159
vt 0.823805 0.424269
vt 0.287642 0.959032
vt 0.266934 0.960460
vt 0.375000 0.250000
vt 0.623021 0.260994
vt 0.738613 0.424269
vt 0.261111 0.960460
vt 0.243707 0.029140
vt 0.375000 0.750000
vt 0.622282 0.261953
vt 0.738613 0.353297
vt 0.296501 0.960460
vt 0.351034 0.976008
vt 0.375000 0.500000
vt 0.823805 0.353297
vt 0.623021 0.494200
vt 0.299556 0.029733
vt 0.302324 0.960460
vt 0.883534 0.512768
vt 0.644328 0.512768
vt 0.882342 0.605142
vt 0.776392 0.512768
vt 0.990677 0.605142
vt 0.644328 0.512768
vt 0.882342 0.512768
vt 0.883534 0.512768
vt 0.776392 0.512768
vt 0.512263 0.512768
vt 0.990677 0.512768
vt 0.512263 0.992596
vt 0.990676 0.992596
vt 0.738613 0.353297
vt 0.504992 0.430128
vt 0.776392 0.992596
vt 0.823805 0.004341
vt 0.504992 0.348451
vt 0.644327 0.992596
vt 0.883534 0.992596
vt 0.644328 0.992596
vt 0.908997 0.004341
vt 0.504254 0.431080
vt 0.883534 0.992596
vt 0.823805 0.353297
vt 0.504254 0.349402
vt 0.776392 0.992596
vt 0.623021 0.260994
vt 0.375000 0.250000
vt 0.908997 0.259557
vt 0.375000 0.000000
vt 0.994188 0.259557
vt 0.622282 0.495159
vt 0.994188 0.259557
vt 0.375000 0.750000
vt 0.622282 0.261953
vt 0.908997 0.259557
vt 0.375000 0.500000
vt 0.623021 0.494200
vt 0.504992 0.260994
vt 0.823805 0.068420
vt 0.908997 0.068420
vt 0.504254 0.495159
vt 0.738613 0.265848
vt 0.504992 0.494200
vt 0.823805 0.265848
vt 0.504254 0.261953
vt 0.598213 0.004341
vt 0.863090 0.414778
vt 0.934747 0.004341
vt 0.896782 0.414778
vt 0.968438 0.004341
vt 0.597474 0.113930
vt 0.529801 0.004341
vt 0.863090 0.361565
vt 0.849555 0.348514
vt 0.896782 0.361565
vt 0.883247 0.348514
vt 0.529062 0.113930
vt 0.968438 0.492746
vt 0.601819 0.000391
vt 0.823805 0.474750
vt 0.934746 0.492746
vt 0.602557 0.117881
vt 0.857497 0.474750
vt 0.764363 0.004341
vt 0.525456 0.117881
vt 0.857497 0.414778
vt 0.798055 0.004341
vt 0.524717 0.000391
vt 0.823805 0.414778
vt 0.623021 0.389286
vt 0.256596 0.990226
vt 0.306839 0.990226
vt 0.274362 0.000480
vt 0.622282 0.390245
vt 0.271449 0.990226
vt 0.291986 0.990226
vt 0.317046 0.996337
vt 0.990677 0.558955
vt 0.578295 0.512768
vt 0.710360 0.512768
vt 0.882342 0.558955
vt 0.504254 0.390241
vt 0.710360 0.992596
vt 0.504992 0.389290
vt 0.578295 0.992596
vt 0.823805 0.495242
vt 0.823805 0.348514
vt 0.713527 0.495159
vt 0.738613 0.495242
vt 0.823805 0.414778
vt 0.714266 0.260994
vt 0.823805 0.424269
vt 0.714266 0.494200
vt 0.886888 0.481043
vt 0.738613 0.424269
vt 0.886888 0.414778
vt 0.713527 0.261953
vt 0.713527 0.390245
vt 0.714266 0.389286
vt 0.337427 0.073595
vt 0.342264 0.073882
vt 0.140127 0.927637
vt 0.306874 0.073882
vt 0.377654 0.073882
vt 0.118771 0.064377
vt 0.233634 0.928631
vt 0.342264 0.073882
vt 0.443563 0.102018
vt 0.106545 0.064377
vt 0.390495 0.087806
vt 0.186880 0.928134
vt 0.133800 0.994731
vt 0.306874 0.005071
vt 0.863090 0.398658
vt 0.738613 0.288269
vt 0.118771 0.011074
vt 0.227306 0.995726
vt 0.738613 0.466919
vt 0.857497 0.464923
vt 0.448875 0.035247
vt 0.106545 0.011074
vt 0.857497 0.430898
vt 0.737874 0.289234
vt 0.395807 0.021036
vt 0.737874 0.390247
vt 0.180553 0.995229
vt 0.738613 0.389283
vt 0.342739 0.006824
vt 0.342264 0.005071
vt 0.863090 0.364634
vt 0.737874 0.467883
s 0
usemtl Material.004
f 47/123/1 48/125/1 4/9/1 2/5/1
f 52/133/2 49/128/2 8/19/2 34/95/2
f 49/126/3 50/129/3 6/14/3 8/20/3
f 51/132/4 47/122/4 2/4/4 36/99/4
f 40/107/5 37/101/5 12/30/5 13/32/5
f 34/93/6 36/97/6 2/5/6 4/9/6
f 37/100/7 38/103/7 11/27/7 12/31/7
f 15/40/8 9/21/8 10/24/8 14/36/8
f 13/33/9 12/31/9 11/28/9 16/44/9
f 39/105/10 38/102/10 9/22/10 15/41/10
f 35/96/10 39/104/10 15/43/10 1/2/10
f 5/12/10 19/56/10 24/67/10 16/46/10
f 16/45/7 24/66/7 23/64/7 13/34/7
f 33/92/5 40/106/5 13/35/5 7/18/5
f 20/57/11 30/83/11 29/80/11 19/54/11
f 17/48/12 25/68/12 27/74/12 21/60/12
f 3/7/5 17/48/5 21/60/5 14/38/5
f 14/37/7 21/61/7 22/62/7 15/42/7
f 1/1/13 3/6/13 17/49/13 18/51/13
f 13/35/5 23/65/5 20/59/5 7/18/5
f 7/16/13 5/11/13 19/55/13 20/58/13
f 15/43/10 22/63/10 18/53/10 1/2/10
f 26/71/8 28/77/8 27/75/8 25/69/8
f 18/52/14 26/72/14 25/70/14 17/50/14
f 21/61/15 27/76/15 28/78/15 22/62/15
f 22/63/16 28/79/16 26/73/16 18/53/16
f 24/66/17 32/89/17 31/86/17 23/64/17
f 23/65/18 31/87/18 30/84/18 20/59/18
f 19/56/19 29/81/19 32/90/19 24/67/19
f 30/85/8 29/82/8 32/91/8 31/88/8
f 3/7/5 14/38/5 40/106/5 33/92/5
f 5/12/10 16/46/10 39/104/10 35/96/10
f 16/47/10 11/29/10 38/102/10 39/105/10
f 10/25/7 9/23/7 38/103/7 37/100/7
f 8/20/20 6/14/20 36/98/20 34/94/20
f 14/39/5 10/26/5 37/101/5 40/107/5
f 50/130/21 51/132/21 36/99/21 6/15/21
f 48/124/22 52/133/22 34/95/22 4/10/22
f 3/7/5 33/92/5 46/121/5 42/113/5
f 5/12/10 35/96/10 45/120/10 44/119/10
f 35/96/10 1/2/10 41/110/10 45/120/10
f 7/17/9 5/13/9 44/117/9 43/114/9
f 33/92/5 7/18/5 43/115/5 46/121/5
f 1/3/8 3/8/8 42/111/8 41/108/8
f 53/134/5 57/148/5 52/133/5 48/124/5
f 55/142/10 56/146/10 51/132/10 50/130/10
f 56/146/10 58/150/10 47/122/10 51/132/10
f 54/138/9 55/143/9 50/131/9 49/127/9
f 57/148/5 54/139/5 49/128/5 52/133/5
f 58/151/8 53/135/8 48/125/8 47/123/8
f 41/109/23 42/112/23 53/136/23 58/152/23
f 46/121/24 43/115/24 54/140/24 57/149/24
f 43/116/25 44/118/25 55/144/25 54/141/25
f 45/120/26 41/110/26 58/153/26 56/147/26
f 44/119/26 45/120/26 56/147/26 55/145/26
f 42/113/24 46/121/24 57/149/24 53/137/24
